<?xml version="1.0" encoding="UTF-8"?>
<svg version="1.1" viewBox="0 0 1080 1080" width="1080" height="1080" xmlns="http://www.w3.org/2000/svg">
<path transform="translate(0)" d="m0 0h1080v1080h-1080z" fill="#FDFDFD"/>
<path transform="translate(164,416)" d="m0 0 7 1 21 12 26 15 13 8 11 6 23 13 12 7 1 2v123l-9 6-23 13-24 14-5-2-7-4-1-138-10-3-7-2-1 45h-55v-99l5-4z" fill="#FAAE18"/>
<path transform="translate(103,451)" d="m0 0 6 1 9 6v140l18 6v-44h55v93l-17 10-7 4-4-1-18-10-19-11-13-8-11-6-26-15-20-12-1-1v-123l3-3 28-16z" fill="#153B72"/>
<path transform="translate(708,508)" d="m0 0h22l6 9 17 32 9 16 13 24v2l3-1 14-26 13-23 13-24 5-6 7-3h14l7 2 8 9 15 28 13 23 13 24 9 16-1 3h-22l-4-5-8-14v-2h-54l1-5 6-12 2-1h34l-8-16-9-16-7-12-3 1-19 37-10 19-11 20-6 5-3 1h-17l-7-3-6-8-13-24-12-21-14-26-10-18-1-4z" fill="#143C74"/>
<path transform="translate(493,508)" d="m0 0h75l2 2v18l-2 1-75 1-7 3-3 4-1 4v9l86 1 1 1v15l-1 2h-87l2 15 4 5 5 2 76 1 2 2v17l-2 2h-78l-13-3-8-5-6-7-3-8-1-4v-50l3-10 5-8 8-6 10-3z" fill="#143C74"/>
<path transform="translate(590,508)" d="m0 0h86l11 2 8 4 5 6 3 7 1 5v24l-4 11-7 7-7 3h-3l3 5 13 16 9 12-1 3h-23l-5-5-24-32-2-4v-7l3-3 14-1 7-2 3-5v-18l-1-4-5-2-64-1v82l-1 2h-20l-2-2v-101z" fill="#143D75"/>
<path transform="translate(326,508)" d="m0 0h19l2 2 1 40h68l1-40 2-2h19l2 2v101l-2 2h-20l-1-2v-41h-70v41l-2 2h-19l-2-2v-101z" fill="#143D75"/>
<path transform="translate(921,508)" d="m0 0h18l3 2 1 70 3 7 5 3 5 1 69 1 1 2v17l-1 2h-75l-13-3-9-6-4-5-4-10-1-7v-72z" fill="#143C74"/>
<path transform="translate(164,416)" d="m0 0 3 1v86l-1 29h-30v-99l5-4z" fill="#F38420"/>
<path transform="translate(168,560)" d="m0 0h23v93l-17 10-7 4-3-1 1-1v-103z" fill="#0154A5"/>
<path transform="translate(108,452)" d="m0 0 9 5 1 1v140l18 6v-44h1l1 53-1 2-6-1-26-13-1-2v-145z" fill="#0154A5"/>
<path transform="translate(191,479)" d="m0 0 6 1 24 9 2 4v142h-4l-9-5-1-138-10-3-8-3z" fill="#F38320"/>
<path transform="translate(469,459)" d="m0 0h18l4 4v13l-3 3h-20l-2-2-1-11 2-6z" fill="#0F4280"/>
<path transform="translate(541,459)" d="m0 0h21l2 3v14l-2 3h-22v-19z" fill="#0F4280"/>
<path transform="translate(865,459)" d="m0 0h20l3 4-1 8-3 1 4 7h-5l-4-5-10-1v6h-4z" fill="#10417E"/>
<path transform="translate(385,459)" d="m0 0h8l6 13v3l3-3 6-13h7l1 1v19h-4v-15h-2l-3 9-3 6h-7l-7-15-1 15h-4z" fill="#10427F"/>
<path transform="translate(804,452)" d="m0 0h2l-1 4-2 3 4 2 9 16v2l-5-1-2-2h-13l-2 3-4 1-1-2 9-17 2-2 2-5z" fill="#11407C"/>
<path transform="translate(1e3 459)" d="m0 0h6l6 9 5 11h-5l-2-3h-13l-2 3h-5l2-6z" fill="#11407C"/>
<path transform="translate(471,463)" d="m0 0h14l2 3v7l-1 2h-15l-1-1v-10z" fill="#FDFDFD"/>
<path transform="translate(667,459)" d="m0 0h4l1 16h15l1 4h-18l-3-4z" fill="#0F4280"/>
<path transform="translate(736,459)" d="m0 0 5 1v19h-5z" fill="#0D4485"/>
<path transform="translate(869,463)" d="m0 0h13l1 1v5h-14z" fill="#FDFDFD"/>
<path transform="translate(613,459)" d="m0 0h4v20h-4z" fill="#10417F"/>
<path transform="translate(937,459)" d="m0 0h4v20h-4z" fill="#10417F"/>
<path transform="translate(331,459)" d="m0 0h4v20h-4z" fill="#123F7A"/>
<path transform="translate(545,471)" d="m0 0h14v4l-2 1h-11z" fill="#FDFDFD"/>
<path transform="translate(545,463)" d="m0 0h14v4h-14z" fill="#FDFDFD"/>
<path transform="translate(801,464)" d="m0 0h3l3 5v3h-9l2-6z" fill="#FDFDFD"/>
<path transform="translate(1e3 463)" d="m0 0 4 5 1 4h-9l2-6z" fill="#FDFDFD"/>
<path transform="translate(804,452)" d="m0 0h2l-1 4-6 7v-3l3-6z" fill="#0B478B"/>
</svg>
